<svg width="40" height="40" viewBox="0 0 40 40" fill="none" xmlns="http://www.w3.org/2000/svg">
<g clip-path="url(#clip0_5861_11015)">
<path d="M15.973 20H24.0351C24.1124 20 24.1885 19.9811 24.2568 19.9449C24.3251 19.9087 24.3835 19.8563 24.4268 19.7923C24.4702 19.7282 24.4972 19.6546 24.5054 19.5777C24.5137 19.5008 24.503 19.4231 24.4742 19.3513L24.1953 18.6539C24.0676 18.3347 23.8719 18.0472 23.6218 17.8113C23.3716 17.5755 23.0731 17.3971 22.7469 17.2885L21.4066 16.842C21.366 16.8279 21.3299 16.8031 21.3023 16.7701C21.2746 16.7372 21.2564 16.6974 21.2496 16.6549C21.2428 16.6125 21.2476 16.5689 21.2635 16.529C21.2794 16.489 21.3059 16.4542 21.3401 16.4281C21.6721 16.1368 21.9363 15.7763 22.114 15.372C22.2917 14.9677 22.3787 14.5293 22.3688 14.0878C22.4257 13.3991 22.2097 12.7157 21.7673 12.1848C21.325 11.6539 20.6917 11.3182 20.004 11.25C19.3164 11.3182 18.6831 11.654 18.2407 12.1848C17.7983 12.7157 17.5823 13.3991 17.6392 14.0878C17.6293 14.5294 17.7163 14.9677 17.894 15.372C18.0718 15.7764 18.3359 16.1368 18.668 16.4281C18.7021 16.4542 18.7286 16.4891 18.7445 16.529C18.7605 16.569 18.7653 16.6125 18.7585 16.6549C18.7516 16.6974 18.7334 16.7372 18.7058 16.7702C18.6781 16.8031 18.6421 16.828 18.6014 16.842L17.2611 17.2885C16.9349 17.3971 16.6364 17.5756 16.3863 17.8114C16.1361 18.0472 15.9404 18.3347 15.8128 18.6539L15.5338 19.3514C15.5051 19.4231 15.4944 19.5008 15.5027 19.5777C15.511 19.6545 15.538 19.7282 15.5813 19.7922C15.6246 19.8562 15.683 19.9086 15.7513 19.9448C15.8195 19.9811 15.8957 20 15.973 20Z" fill="#120501"/>
<path d="M11.5673 7.50031V3.37891C11.538 3.40516 11.5039 3.42559 11.4758 3.45368L7.2082 7.72126C7.17981 7.74963 7.15936 7.78321 7.13281 7.81281H11.2548C11.3374 7.81183 11.4163 7.7786 11.4747 7.7202C11.5331 7.66181 11.5664 7.58288 11.5673 7.50031Z" fill="#120501"/>
<path d="M33.4375 5C33.4368 4.42006 33.2061 3.86407 32.796 3.45398C32.3859 3.0439 31.83 2.8132 31.25 2.8125H13.4375V7.5C13.4368 8.07995 13.2061 8.63594 12.796 9.04602C12.3859 9.4561 11.8299 9.6868 11.25 9.6875H6.5625V35C6.5632 35.5799 6.7939 36.1359 7.20398 36.546C7.61407 36.9561 8.17006 37.1868 8.75 37.1875H31.25C31.83 37.1868 32.3859 36.9561 32.796 36.546C33.2061 36.1359 33.4368 35.5799 33.4375 35V5ZM20 8.75C21.4834 8.75 22.9334 9.18987 24.1668 10.014C25.4002 10.8381 26.3614 12.0094 26.9291 13.3799C27.4968 14.7503 27.6453 16.2583 27.3559 17.7132C27.0665 19.168 26.3522 20.5044 25.3033 21.5533C24.2544 22.6022 22.918 23.3165 21.4632 23.6059C20.0083 23.8953 18.5003 23.7468 17.1299 23.1791C15.7594 22.6114 14.5881 21.6501 13.764 20.4168C12.9399 19.1834 12.5 17.7334 12.5 16.25C12.5 14.2609 13.2902 12.3532 14.6967 10.9467C16.1032 9.54018 18.0109 8.75 20 8.75ZM27.5 32.1875H12.5C12.2514 32.1875 12.0129 32.0887 11.8371 31.9129C11.6613 31.7371 11.5625 31.4986 11.5625 31.25C11.5625 31.0014 11.6613 30.7629 11.8371 30.5871C12.0129 30.4113 12.2514 30.3125 12.5 30.3125H27.5C27.7486 30.3125 27.9871 30.4113 28.1629 30.5871C28.3387 30.7629 28.4375 31.0014 28.4375 31.25C28.4375 31.4986 28.3387 31.7371 28.1629 31.9129C27.9871 32.0887 27.7486 32.1875 27.5 32.1875ZM27.5 28.4375H12.5C12.2514 28.4375 12.0129 28.3387 11.8371 28.1629C11.6613 27.9871 11.5625 27.7486 11.5625 27.5C11.5625 27.2514 11.6613 27.0129 11.8371 26.8371C12.0129 26.6613 12.2514 26.5625 12.5 26.5625H27.5C27.7486 26.5625 27.9871 26.6613 28.1629 26.8371C28.3387 27.0129 28.4375 27.2514 28.4375 27.5C28.4375 27.7486 28.3387 27.9871 28.1629 28.1629C27.9871 28.3387 27.7486 28.4375 27.5 28.4375Z" fill="#120501"/>
</g>
<defs>
<clipPath id="clip0_5861_11015">
<rect width="40" height="40" fill="white"/>
</clipPath>
</defs>
</svg>
