<svg width="40" height="40" viewBox="0 0 40 40" fill="none" xmlns="http://www.w3.org/2000/svg">
<g clip-path="url(#clip0_5861_11042)">
<path d="M23.4375 22.8125H16.5625C15.8721 22.8125 15.3125 23.3721 15.3125 24.0625V35.9375C15.3125 36.6279 15.8721 37.1875 16.5625 37.1875H23.4375C24.1279 37.1875 24.6875 36.6279 24.6875 35.9375V24.0625C24.6875 23.3721 24.1279 22.8125 23.4375 22.8125Z" fill="#120501"/>
<path d="M12.1875 26.5625H5.3125C4.62214 26.5625 4.0625 27.1221 4.0625 27.8125V35.9375C4.0625 36.6279 4.62214 37.1875 5.3125 37.1875H12.1875C12.8779 37.1875 13.4375 36.6279 13.4375 35.9375V27.8125C13.4375 27.1221 12.8779 26.5625 12.1875 26.5625Z" fill="#120501"/>
<path d="M34.6875 15.3125H27.8125C27.1221 15.3125 26.5625 15.8721 26.5625 16.5625V35.9375C26.5625 36.6279 27.1221 37.1875 27.8125 37.1875H34.6875C35.3779 37.1875 35.9375 36.6279 35.9375 35.9375V16.5625C35.9375 15.8721 35.3779 15.3125 34.6875 15.3125Z" fill="#120501"/>
<path d="M35.488 6.10817H33.5706C33.422 6.10813 33.2767 6.06451 33.1527 5.98271C33.0287 5.90091 32.9314 5.78452 32.8729 5.64797L31.9461 3.48458C31.8876 3.34801 31.7904 3.23162 31.6663 3.14982C31.5423 3.06802 31.397 3.02441 31.2485 3.02441C31.0999 3.02441 30.9546 3.06802 30.8306 3.14982C30.7066 3.23162 30.6093 3.34801 30.5508 3.48458L29.624 5.64797C29.5655 5.78452 29.4682 5.90091 29.3442 5.98271C29.2202 6.06451 29.0749 6.10813 28.9264 6.10817H27.009C26.8588 6.10823 26.7121 6.15281 26.5872 6.23627C26.4624 6.31973 26.3651 6.43833 26.3077 6.57708C26.2503 6.71582 26.2353 6.86847 26.2646 7.01573C26.2939 7.163 26.3663 7.29826 26.4725 7.40442L27.9086 8.84134C28.0013 8.93405 28.0684 9.04919 28.1034 9.17553C28.1384 9.30188 28.14 9.43514 28.1082 9.56232L27.4295 12.2787C27.3934 12.423 27.4005 12.5748 27.4499 12.7151C27.4993 12.8554 27.5889 12.9781 27.7074 13.0679C27.826 13.1578 27.9684 13.2108 28.1168 13.2204C28.2653 13.23 28.4133 13.1957 28.5425 13.1219L30.8719 11.7904C30.9865 11.7248 31.1163 11.6903 31.2484 11.6903C31.3805 11.6903 31.5104 11.7248 31.625 11.7904L33.9545 13.1218C34.0836 13.1956 34.2316 13.2299 34.3801 13.2203C34.5285 13.2107 34.6709 13.1577 34.7895 13.0678C34.9081 12.978 34.9976 12.8553 35.047 12.715C35.0965 12.5747 35.1036 12.4229 35.0675 12.2786L34.3887 9.56224C34.3569 9.43506 34.3585 9.30181 34.3935 9.17546C34.4285 9.04911 34.4956 8.93397 34.5883 8.84127L36.0247 7.4044C36.1309 7.29822 36.2032 7.16293 36.2325 7.01566C36.2618 6.86839 36.2468 6.71574 36.1893 6.577C36.1319 6.43827 36.0346 6.31968 35.9097 6.23623C35.7849 6.15278 35.6381 6.10822 35.488 6.10817Z" fill="#120501"/>
<path d="M13.9982 15.8136C13.5647 15.4905 13.0385 15.3159 12.4979 15.3156C11.9573 15.3152 11.4309 15.4892 10.9971 15.8118L6.74718 18.9996C6.483 19.199 6.30863 19.4949 6.26231 19.8226C6.21599 20.1503 6.30149 20.483 6.50007 20.7477C6.69865 21.0124 6.9941 21.1876 7.32165 21.2349C7.6492 21.2821 7.98212 21.1976 8.24743 20.9998L12.4973 17.8131L13.4257 18.5089C13.8573 18.8338 14.3832 19.0087 14.9235 19.007C15.5416 19.0074 16.1381 18.7794 16.5983 18.3667L19.9973 15.3073V16.25C19.9973 16.5815 20.129 16.8995 20.3634 17.1339C20.5978 17.3683 20.9158 17.5 21.2473 17.5C21.5788 17.5 21.8968 17.3683 22.1312 17.1339C22.3656 16.8995 22.4973 16.5815 22.4973 16.25V12.5C22.4897 12.4364 22.477 12.3735 22.4592 12.312C22.4512 12.2247 22.4338 12.1385 22.4073 12.055C22.371 11.9748 22.3262 11.8988 22.2736 11.8283C22.2458 11.7706 22.2132 11.7154 22.1763 11.6632C22.1684 11.6546 22.1568 11.6516 22.1488 11.6432C22.0623 11.5589 21.964 11.4877 21.857 11.4318C21.8207 11.4045 21.7831 11.379 21.7441 11.3556C21.5876 11.2865 21.4184 11.2505 21.2473 11.25H17.4973C17.1658 11.25 16.8478 11.3817 16.6134 11.6161C16.379 11.8505 16.2473 12.1685 16.2473 12.5C16.2473 12.8315 16.379 13.1495 16.6134 13.3839C16.8478 13.6183 17.1658 13.75 17.4973 13.75H17.9892L14.9253 16.5082L13.9982 15.8136Z" fill="#120501"/>
</g>
<defs>
<clipPath id="clip0_5861_11042">
<rect width="40" height="40" fill="white"/>
</clipPath>
</defs>
</svg>
