<svg width="40" height="40" viewBox="0 0 40 40" fill="none" xmlns="http://www.w3.org/2000/svg">
<g clip-path="url(#clip0_5861_11030)">
<path d="M10.9818 33.1172L13.7473 36.25L14.2652 36.7677C14.4973 36.9999 14.7729 37.184 15.0761 37.3097C15.3794 37.4353 15.7045 37.5 16.0328 37.5H27.4973C27.8256 37.5 28.1507 37.4354 28.454 37.3097C28.7573 37.1841 29.0329 36.9999 29.2651 36.7678C29.4972 36.5356 29.6814 36.26 29.807 35.9567C29.9327 35.6534 29.9973 35.3283 29.9973 35V30C29.9973 29.6717 29.9327 29.3466 29.807 29.0433C29.6814 28.74 29.4972 28.4644 29.2651 28.2322C29.0329 28.0001 28.7573 27.8159 28.454 27.6903C28.1507 27.5646 27.8256 27.5 27.4973 27.5C27.1658 27.5 26.8479 27.6317 26.6134 27.8661C26.379 28.1006 26.2473 28.4185 26.2473 28.75V26.8619C26.2473 26.5353 26.183 26.2119 26.058 25.9102C25.933 25.6085 25.7499 25.3343 25.5189 25.1034C25.288 24.8724 25.0139 24.6893 24.7121 24.5643C24.4104 24.4393 24.087 24.375 23.7604 24.375C23.2632 24.375 22.7863 24.5726 22.4346 24.9242C22.083 25.2758 21.8855 25.7527 21.8854 26.25V21.25C21.8854 20.587 21.622 19.9511 21.1532 19.4823C20.6843 19.0134 20.0485 18.75 19.3854 18.75C18.7224 18.75 18.0865 19.0134 17.6177 19.4823C17.1489 19.9511 16.8855 20.587 16.8854 21.25L16.8723 31.875H16.4771L15.3107 30.2985C14.9262 29.7493 14.3434 29.3711 13.6853 29.2436C13.0272 29.1161 12.3453 29.2492 11.7835 29.615C11.2218 29.9808 10.8241 30.5506 10.6746 31.204C10.525 31.8575 10.6351 32.5435 10.9818 33.1172Z" fill="#120501"/>
<path d="M13.092 17.5H26.9129C27.0454 17.5 27.1758 17.4675 27.2929 17.4054C27.41 17.3433 27.51 17.2535 27.5843 17.1438C27.6586 17.0341 27.7049 16.9078 27.719 16.7761C27.7332 16.6443 27.7149 16.5111 27.6657 16.3881L27.1875 15.1923C26.9686 14.6451 26.6331 14.1522 26.2043 13.748C25.7755 13.3437 25.2637 13.0378 24.7046 12.8516L22.4069 12.0863C22.3372 12.0622 22.2754 12.0196 22.228 11.9631C22.1805 11.9066 22.1493 11.8384 22.1376 11.7656C22.126 11.6927 22.1342 11.6181 22.1616 11.5496C22.189 11.4812 22.2344 11.4214 22.2931 11.3767C22.8621 10.8773 23.3149 10.2594 23.6195 9.56629C23.9242 8.87319 24.0733 8.12178 24.0564 7.36488C24.0564 4.67804 22.2415 2.5 20.0025 2.5C17.7634 2.5 15.9485 4.67804 15.9485 7.36481C15.9316 8.12171 16.0807 8.87313 16.3854 9.56623C16.69 10.2593 17.1428 10.8773 17.7118 11.3767C17.7705 11.4213 17.8159 11.4811 17.8433 11.5496C17.8707 11.6181 17.8789 11.6927 17.8673 11.7655C17.8556 11.8383 17.8244 11.9066 17.7769 11.9631C17.7295 12.0195 17.6677 12.0621 17.598 12.0862L15.3003 12.8516C14.7412 13.0378 14.2294 13.3438 13.8006 13.748C13.3719 14.1523 13.0363 14.6451 12.8174 15.1923L12.3392 16.3881C12.29 16.5111 12.2717 16.6443 12.2859 16.7761C12.3001 16.9078 12.3464 17.034 12.4207 17.1438C12.4949 17.2535 12.595 17.3433 12.712 17.4054C12.8291 17.4675 12.9596 17.5 13.092 17.5Z" fill="#120501"/>
<path d="M31.5625 12.5C31.5626 12.7486 31.6614 12.987 31.8372 13.1628C32.013 13.3386 32.2514 13.4374 32.5 13.4375H35C35.2486 13.4375 35.4871 13.3387 35.6629 13.1629C35.8387 12.9871 35.9375 12.7486 35.9375 12.5C35.9375 12.2514 35.8387 12.0129 35.6629 11.8371C35.4871 11.6613 35.2486 11.5625 35 11.5625H32.5C32.2514 11.5626 32.013 11.6614 31.8372 11.8372C31.6614 12.013 31.5626 12.2514 31.5625 12.5Z" fill="#120501"/>
<path d="M30.3045 8.13419C30.4277 8.13434 30.5496 8.11016 30.6634 8.06302C30.7772 8.01589 30.8805 7.94674 30.9675 7.85954L32.735 6.09196C32.9097 5.91595 33.0075 5.67786 33.0071 5.42983C33.0066 5.18181 32.9079 4.94408 32.7325 4.7687C32.5572 4.59332 32.3194 4.49459 32.0714 4.49414C31.8234 4.49369 31.5853 4.59155 31.4093 4.76629L29.6417 6.53385C29.5106 6.66496 29.4214 6.832 29.3852 7.01384C29.349 7.19567 29.3676 7.38415 29.4385 7.55544C29.5095 7.72673 29.6296 7.87313 29.7838 7.97615C29.9379 8.07916 30.1192 8.13416 30.3045 8.13419Z" fill="#120501"/>
<path d="M31.4093 20.234C31.4963 20.3216 31.5996 20.3911 31.7135 20.4387C31.8274 20.4862 31.9495 20.5108 32.0729 20.511C32.1963 20.5112 32.3185 20.4871 32.4325 20.44C32.5466 20.3929 32.6502 20.3237 32.7374 20.2365C32.8247 20.1492 32.8938 20.0456 32.941 19.9315C32.9881 19.8175 33.0122 19.6953 33.012 19.5719C33.0118 19.4485 32.9872 19.3264 32.9396 19.2125C32.8921 19.0987 32.8226 18.9953 32.735 18.9084L30.9675 17.1408C30.7917 16.965 30.5533 16.8662 30.3046 16.8662C30.056 16.8662 29.8176 16.965 29.6418 17.1408C29.466 17.3166 29.3672 17.555 29.3672 17.8037C29.3672 18.0523 29.466 18.2907 29.6418 18.4665L31.4093 20.234Z" fill="#120501"/>
<path d="M5.30469 13.4375H7.80469C8.05333 13.4375 8.29179 13.3387 8.4676 13.1629C8.64342 12.9871 8.74219 12.7486 8.74219 12.5C8.74219 12.2514 8.64342 12.0129 8.4676 11.8371C8.29179 11.6613 8.05333 11.5625 7.80469 11.5625H5.30469C5.05605 11.5625 4.81759 11.6613 4.64177 11.8371C4.46596 12.0129 4.36719 12.2514 4.36719 12.5C4.36719 12.7486 4.46596 12.9871 4.64177 13.1629C4.81759 13.3387 5.05605 13.4375 5.30469 13.4375Z" fill="#120501"/>
<path d="M9.33772 7.85968C9.51364 8.0349 9.75189 8.13318 10.0002 8.13294C10.2485 8.13269 10.4865 8.03395 10.6621 7.85837C10.8377 7.6828 10.9364 7.44475 10.9367 7.19645C10.9369 6.94815 10.8386 6.7099 10.6634 6.53399L8.89582 4.76643C8.71991 4.5912 8.48166 4.49292 8.23336 4.49316C7.98507 4.49341 7.74701 4.59215 7.57144 4.76772C7.39586 4.94329 7.29712 5.18135 7.29688 5.42964C7.29663 5.67794 7.39491 5.91619 7.57013 6.0921L9.33772 7.85968Z" fill="#120501"/>
<path d="M8.23425 20.5087C8.35738 20.5088 8.47933 20.4846 8.59308 20.4375C8.70683 20.3904 8.81015 20.3212 8.89709 20.234L10.6647 18.4665C10.8405 18.2907 10.9392 18.0523 10.9392 17.8037C10.9393 17.555 10.8405 17.3166 10.6647 17.1408C10.4889 16.965 10.2505 16.8662 10.0019 16.8662C9.75323 16.8662 9.51479 16.965 9.33899 17.1408L7.5714 18.9083C7.44031 19.0394 7.35105 19.2065 7.31488 19.3883C7.27872 19.5702 7.29728 19.7586 7.36823 19.9299C7.43918 20.1012 7.55932 20.2476 7.71347 20.3506C7.86762 20.4537 8.04885 20.5087 8.23425 20.5087Z" fill="#120501"/>
</g>
<defs>
<clipPath id="clip0_5861_11030">
<rect width="40" height="40" fill="white"/>
</clipPath>
</defs>
</svg>
