<svg width="40" height="40" viewBox="0 0 40 40" fill="none" xmlns="http://www.w3.org/2000/svg">
<g clip-path="url(#clip0_5861_11059)">
<path d="M3.63645 33.7506H12.6184C12.7045 33.7506 12.7893 33.7295 12.8654 33.6891C12.9415 33.6488 13.0065 33.5904 13.0548 33.5191C13.1031 33.4478 13.1332 33.3658 13.1424 33.2801C13.1517 33.1945 13.1398 33.1079 13.1079 33.028L12.7969 32.2508C12.6547 31.8952 12.4366 31.5749 12.1579 31.3122C11.8792 31.0495 11.5465 30.8507 11.1832 30.7297L9.68992 30.2322C9.64463 30.2166 9.60444 30.1889 9.57363 30.1522C9.54283 30.1155 9.52255 30.0711 9.51498 30.0238C9.5074 29.9765 9.5128 29.928 9.5306 29.8835C9.5484 29.839 9.57794 29.8002 9.61607 29.7711C9.98591 29.4466 10.2802 29.045 10.4782 28.5946C10.6763 28.1442 10.7732 27.6559 10.7623 27.164C10.7862 26.5628 10.6394 25.9672 10.3391 25.4459C10.0387 24.9246 9.59697 24.4989 9.06492 24.218V22.5006C9.06508 22.4178 9.09805 22.3384 9.15662 22.2798C9.21519 22.2212 9.29459 22.1883 9.37742 22.1881H19.0649V25.4337C18.3307 25.7491 17.7101 26.281 17.2862 26.9584C16.8622 27.6358 16.655 28.4264 16.6922 29.2247C16.6784 29.8428 16.8001 30.4563 17.0489 31.0223C17.2976 31.5883 17.6673 32.0929 18.132 32.5006C18.1799 32.5371 18.217 32.5859 18.2393 32.6419C18.2617 32.6978 18.2684 32.7587 18.2589 32.8182C18.2493 32.8776 18.2238 32.9334 18.1851 32.9795C18.1463 33.0256 18.0958 33.0603 18.0389 33.08L16.163 33.7048C15.7065 33.8569 15.2885 34.1067 14.9384 34.4368C14.5882 34.7669 14.3142 35.1693 14.1354 35.6161L13.7451 36.5927C13.7049 36.6931 13.6899 36.8019 13.7015 36.9094C13.7131 37.017 13.7508 37.1201 13.8115 37.2097C13.8721 37.2993 13.9538 37.3727 14.0494 37.4234C14.145 37.4741 14.2515 37.5006 14.3597 37.5006H25.6451C25.7533 37.5006 25.8599 37.4741 25.9555 37.4234C26.0511 37.3727 26.1328 37.2994 26.1934 37.2098C26.2541 37.1202 26.2919 37.0171 26.3035 36.9095C26.3151 36.802 26.3002 36.6932 26.26 36.5927L25.8694 35.6161C25.6907 35.1694 25.4166 34.7669 25.0665 34.4369C24.7163 34.1068 24.2984 33.857 23.8418 33.7049L21.9659 33.08C21.909 33.0603 21.8585 33.0256 21.8198 32.9795C21.781 32.9334 21.7555 32.8776 21.746 32.8182C21.7364 32.7587 21.7432 32.6978 21.7655 32.6419C21.7879 32.5859 21.825 32.5371 21.8728 32.5006C22.3376 32.0929 22.7073 31.5883 22.9561 31.0223C23.2049 30.4564 23.3267 29.8428 23.313 29.2247C23.3501 28.4264 23.1428 27.6358 22.7188 26.9584C22.2948 26.281 21.6742 25.7491 20.9399 25.4337V22.1881H30.6274C30.7103 22.1883 30.7896 22.2212 30.8482 22.2798C30.9068 22.3384 30.9398 22.4178 30.9399 22.5006V24.218C30.4079 24.4989 29.9662 24.9246 29.6659 25.4459C29.3656 25.9672 29.2189 26.5629 29.2428 27.164C29.2319 27.6559 29.3288 28.1442 29.5268 28.5946C29.7247 29.045 30.019 29.4466 30.3888 29.7711C30.4269 29.8002 30.4564 29.839 30.4742 29.8835C30.492 29.928 30.4974 29.9765 30.4899 30.0238C30.4823 30.0711 30.462 30.1155 30.4312 30.1522C30.4004 30.1889 30.3602 30.2166 30.3149 30.2322L28.8217 30.7297C28.4583 30.8507 28.1257 31.0496 27.847 31.3123C27.5683 31.575 27.3503 31.8953 27.2079 32.2508L26.897 33.028C26.865 33.1079 26.8532 33.1945 26.8624 33.2801C26.8717 33.3658 26.9018 33.4478 26.9501 33.5191C26.9984 33.5904 27.0634 33.6488 27.1395 33.6891C27.2155 33.7295 27.3003 33.7506 27.3865 33.7506H36.3684C36.4545 33.7506 36.5393 33.7295 36.6154 33.6891C36.6915 33.6488 36.7565 33.5904 36.8048 33.5191C36.8531 33.4478 36.8832 33.3658 36.8924 33.2801C36.9017 33.1945 36.8898 33.1079 36.8579 33.028L36.5469 32.2508C36.4047 31.8952 36.1866 31.5749 35.9079 31.3122C35.6292 31.0495 35.2966 30.8507 34.9332 30.7297L33.4399 30.2322C33.3946 30.2166 33.3544 30.1889 33.3236 30.1522C33.2928 30.1155 33.2726 30.0711 33.265 30.0238C33.2574 29.9765 33.2628 29.928 33.2806 29.8835C33.2984 29.839 33.3279 29.8002 33.3661 29.7711C33.7359 29.4466 34.0302 29.045 34.2282 28.5946C34.4263 28.1442 34.5232 27.6559 34.5123 27.164C34.5362 26.5628 34.3894 25.9672 34.0891 25.4459C33.7887 24.9246 33.347 24.4989 32.8149 24.218V22.5006C32.8142 21.9207 32.5835 21.3647 32.1734 20.9546C31.7634 20.5445 31.2074 20.3138 30.6274 20.3131H20.9399V17.5C20.9399 17.2514 20.8412 17.0129 20.6653 16.8371C20.4895 16.6613 20.2511 16.5625 20.0024 16.5625C19.7538 16.5625 19.5153 16.6613 19.3395 16.8371C19.1637 17.0129 19.0649 17.2514 19.0649 17.5V20.3131H9.37742C8.79747 20.3138 8.24148 20.5445 7.8314 20.9546C7.42132 21.3647 7.19062 21.9207 7.18992 22.5006V24.218C6.65791 24.4989 6.21623 24.9246 5.91593 25.4459C5.61562 25.9672 5.46894 26.5629 5.49283 27.164C5.48187 27.6559 5.57879 28.1442 5.77676 28.5946C5.97474 29.045 6.26897 29.4466 6.63877 29.7711C6.6769 29.8002 6.70643 29.839 6.72424 29.8835C6.74204 29.928 6.74744 29.9765 6.73986 30.0238C6.73228 30.0711 6.71201 30.1155 6.6812 30.1522C6.65039 30.1889 6.61021 30.2166 6.56492 30.2322L5.07169 30.7297C4.70834 30.8507 4.37573 31.0496 4.09704 31.3123C3.81834 31.575 3.60025 31.8953 3.45794 32.2508L3.14698 33.028C3.11504 33.1079 3.10317 33.1945 3.11243 33.2801C3.12168 33.3658 3.15177 33.4478 3.20007 33.5191C3.24836 33.5904 3.31339 33.6488 3.38946 33.6891C3.46553 33.7295 3.55034 33.7506 3.63645 33.7506Z" fill="#120501"/>
<path d="M20.0079 15.0099C21.8317 15.0099 24.4867 11.7468 25.5462 10.2627C26.521 8.8978 28.3209 5.69193 26.0806 3.57493C25.599 3.13877 24.9988 2.8553 24.3561 2.7604C23.4608 2.63227 22.5488 2.81646 21.7734 3.28196C20.998 3.74746 20.4067 4.46586 20.0989 5.31625C20.0728 5.38458 20.0424 5.45119 20.0079 5.51569C19.9738 5.45111 19.9436 5.38451 19.9176 5.31625C19.6097 4.46585 19.0183 3.74745 18.2429 3.28195C17.4675 2.81645 16.5554 2.63227 15.6601 2.7604C15.0173 2.8553 14.4171 3.13877 13.9355 3.57494C11.6952 5.69194 13.4952 8.89781 14.4699 10.2627C15.5298 11.7468 18.1845 15.0099 20.0079 15.0099Z" fill="#120501"/>
</g>
<defs>
<clipPath id="clip0_5861_11059">
<rect width="40" height="40" fill="white"/>
</clipPath>
</defs>
</svg>
