<svg width="650" height="29" viewBox="0 0 650 29" fill="none" xmlns="http://www.w3.org/2000/svg">
<path d="M329.914 14.7303C329.914 17.4403 327.714 19.6403 325.004 19.6403C322.294 19.6403 320.094 17.4403 320.094 14.7303C320.094 12.0203 322.294 9.82031 325.004 9.82031C327.714 9.82031 329.914 12.0203 329.914 14.7303Z" fill="#C9B6B0"/>
<path d="M318 14H612V16H318V14Z" fill="#C9B6B0"/>
<path d="M616.06 14.5198C617.59 14.5198 619.12 14.0698 620.34 13.1398C621.24 12.4498 622.05 11.5198 622.46 10.2398C623.5 11.9298 625.07 12.9998 626.66 13.6698C629.11 12.5698 632.04 10.5598 633.2 7.00977C635.6 10.9498 639.81 12.9198 643.39 13.9198C647 14.8998 650 14.8998 650 14.8998C650 14.8998 647 14.8998 643.39 15.8898C639.8 16.8698 635.6 18.8398 633.2 22.7998C632.04 19.2398 629.1 17.2298 626.66 16.1198C625.07 16.8098 623.5 17.8898 622.46 19.5698C622.15 18.6198 621.62 17.8398 621.01 17.2298C619.69 15.9298 617.87 15.2798 616.01 15.2798L616.05 14.5298L616.06 14.5198Z" fill="#C9B6B0"/>
<path d="M609.18 14.7303C609.18 17.4403 611.38 19.6403 614.09 19.6403C616.8 19.6403 619 17.4403 619 14.7303C619 12.0203 616.8 9.82031 614.09 9.82031C611.38 9.82031 609.18 12.0203 609.18 14.7303Z" fill="#C9B6B0"/>
<path d="M332 14H38V16H332V14Z" fill="#C9B6B0"/>
<path d="M33.94 14.5198C32.41 14.5198 30.88 14.0698 29.66 13.1398C28.76 12.4498 27.95 11.5198 27.54 10.2398C26.5 11.9298 24.93 12.9998 23.34 13.6698C20.89 12.5698 17.96 10.5598 16.8 7.00977C14.4 10.9498 10.19 12.9198 6.61 13.9198C3 14.8998 0 14.8998 0 14.8998C0 14.8998 3 14.8998 6.61 15.8898C10.2 16.8698 14.4 18.8398 16.8 22.7998C17.96 19.2398 20.9 17.2298 23.34 16.1198C24.93 16.8098 26.5 17.8898 27.54 19.5698C27.85 18.6198 28.38 17.8398 28.99 17.2298C30.31 15.9298 32.13 15.2798 33.99 15.2798L33.95 14.5298L33.94 14.5198Z" fill="#C9B6B0"/>
<path d="M40.82 14.7303C40.82 17.4403 38.62 19.6403 35.91 19.6403C33.2 19.6403 31 17.4403 31 14.7303C31 12.0203 33.2 9.82031 35.91 9.82031C38.62 9.82031 40.82 12.0203 40.82 14.7303Z" fill="#C9B6B0"/>
</svg>
