<svg width="280" height="29" viewBox="0 0 280 29" fill="none" xmlns="http://www.w3.org/2000/svg">
<path d="M144.414 14.7303C144.414 17.4403 142.214 19.6403 139.504 19.6403C136.794 19.6403 134.594 17.4403 134.594 14.7303C134.594 12.0203 136.794 9.82031 139.504 9.82031C142.214 9.82031 144.414 12.0203 144.414 14.7303Z" fill="#C9B6B0"/>
<path d="M40 14H242V16H40V14Z" fill="#C9B6B0"/>
<path d="M246.06 14.5178C247.59 14.5178 249.12 14.0678 250.34 13.1378C251.24 12.4478 252.05 11.5178 252.46 10.2378C253.5 11.9278 255.07 12.9978 256.66 13.6678C259.11 12.5678 262.04 10.5578 263.2 7.00781C265.6 10.9478 269.81 12.9178 273.39 13.9178C277 14.8978 280 14.8978 280 14.8978C280 14.8978 277 14.8978 273.39 15.8878C269.8 16.8678 265.6 18.8378 263.2 22.7978C262.04 19.2378 259.1 17.2278 256.66 16.1178C255.07 16.8078 253.5 17.8878 252.46 19.5678C252.15 18.6178 251.62 17.8378 251.01 17.2278C249.69 15.9278 247.87 15.2778 246.01 15.2778L246.05 14.5278L246.06 14.5178Z" fill="#C9B6B0"/>
<path d="M239.18 14.7303C239.18 17.4403 241.38 19.6403 244.09 19.6403C246.8 19.6403 249 17.4403 249 14.7303C249 12.0203 246.8 9.82031 244.09 9.82031C241.38 9.82031 239.18 12.0203 239.18 14.7303Z" fill="#C9B6B0"/>
<path d="M263 14H38V16H263V14Z" fill="#C9B6B0"/>
<path d="M33.94 14.5178C32.41 14.5178 30.88 14.0678 29.66 13.1378C28.76 12.4478 27.95 11.5178 27.54 10.2378C26.5 11.9278 24.93 12.9978 23.34 13.6678C20.89 12.5678 17.96 10.5578 16.8 7.00781C14.4 10.9478 10.19 12.9178 6.61 13.9178C3 14.8978 0 14.8978 0 14.8978C0 14.8978 3 14.8978 6.61 15.8878C10.2 16.8678 14.4 18.8378 16.8 22.7978C17.96 19.2378 20.9 17.2278 23.34 16.1178C24.93 16.8078 26.5 17.8878 27.54 19.5678C27.85 18.6178 28.38 17.8378 28.99 17.2278C30.31 15.9278 32.13 15.2778 33.99 15.2778L33.95 14.5278L33.94 14.5178Z" fill="#C9B6B0"/>
<path d="M40.82 14.7303C40.82 17.4403 38.62 19.6403 35.91 19.6403C33.2 19.6403 31 17.4403 31 14.7303C31 12.0203 33.2 9.82031 35.91 9.82031C38.62 9.82031 40.82 12.0203 40.82 14.7303Z" fill="#C9B6B0"/>
</svg>
