<svg width="17" height="12" viewBox="0 0 17 12" fill="none" xmlns="http://www.w3.org/2000/svg">
<g clip-path="url(#clip0_13_4016)">
<path d="M16.1383 3.32979C15.8207 3.09888 15.3403 3.15745 15.0726 3.45863C14.7953 3.7707 14.7897 4.21829 15.0589 4.56549C15.1234 4.64832 15.192 4.7278 15.3395 4.90684C14.9832 5.23145 14.6261 5.52845 14.3004 5.85976C13.3846 6.79176 12.1158 6.73655 11.2984 5.70582C10.9993 5.32934 10.7155 4.9403 10.4326 4.55127C10.0553 4.0334 9.6845 3.51051 9.41364 3.13319C9.53456 2.63121 9.68933 2.27982 9.68772 1.9276C9.68611 1.39467 9.30078 0.991415 8.80985 0.865921C8.70425 0.839149 8.59945 0.826599 8.49627 0.828273C8.39308 0.827436 8.28828 0.839149 8.18268 0.865921C7.69175 0.991415 7.30642 1.39467 7.30481 1.9276C7.304 2.27899 7.45797 2.63121 7.57889 3.13319C7.30803 3.51051 6.93802 4.0334 6.55995 4.55127C6.27619 4.9403 5.99244 5.32934 5.69417 5.70582C4.87595 6.73655 3.60711 6.79176 2.69215 5.85976C2.36648 5.52845 2.00856 5.23145 1.65306 4.90684C1.80058 4.7278 1.8691 4.64832 1.93359 4.56549C2.20284 4.21829 2.19719 3.7707 1.91988 3.45863C1.65225 3.15745 1.1718 3.09972 0.854185 3.32979C0.521255 3.57158 0.391469 4.03256 0.589776 4.40486C1.48377 6.08732 2.38905 7.76309 3.32658 9.50914C5.04443 8.90425 6.76874 8.59052 8.49627 8.59135C10.2238 8.59135 11.9481 8.90425 13.666 9.50914C14.6035 7.76393 15.5088 6.08732 16.4028 4.40486C16.6011 4.03256 16.4713 3.57158 16.1383 3.32979Z" fill="white"/>
<path d="M13.3261 10.3038C11.7364 9.90136 10.1403 9.44623 8.50065 9.49308C6.86099 9.44623 5.26486 9.90136 3.67518 10.3038C3.28985 10.4017 3.19473 10.7171 3.28824 11.3889C3.33741 11.7411 3.5591 11.8264 3.86381 11.8256C5.40755 11.8214 6.95128 11.8239 8.49501 11.8239L8.49501 11.8264C8.49501 11.8264 8.49904 11.8264 8.50065 11.8264L8.5063 11.8264L8.5063 11.8239C10.05 11.8239 11.5938 11.8214 13.1375 11.8256C13.4414 11.8264 13.6639 11.7411 13.7131 11.3889C13.8066 10.7171 13.7115 10.4017 13.3261 10.3038Z" fill="white"/>
</g>
<defs>
<clipPath id="clip0_13_4016">
<rect width="16" height="11" fill="white" transform="translate(16.4961 11.8281) rotate(180)"/>
</clipPath>
</defs>
</svg>
