<svg width="40" height="40" viewBox="0 0 40 40" fill="none" xmlns="http://www.w3.org/2000/svg">
<path d="M34.875 1.25H1.75V38.75H39.25V5.625H34.875V1.25ZM32.375 13.125H30.5V17.5C30.5 19.223 29.098 20.625 27.375 20.625H23V22.5H18V20.625H13.625C12.5911 20.625 11.75 21.4661 11.75 22.5V26.25H13.625V28.125H27.375V26.25H32.375V31.25H27.375V29.375H13.625V31.25H8.625V26.25H10.5V22.5C10.5 20.777 11.902 19.375 13.625 19.375H18V17.5H23V19.375H27.375C28.4089 19.375 29.25 18.5339 29.25 17.5V13.125H27.375V11.25H13.625V13.125H8.625V8.125H13.625V10H27.375V8.125H32.375V13.125Z" fill="#120501"/>
<path d="M36.125 4.375H38.625L36.125 1.875V4.375Z" fill="#120501"/>
</svg>
