<svg width="40" height="40" viewBox="0 0 40 40" fill="none" xmlns="http://www.w3.org/2000/svg">
<g clip-path="url(#clip0_5871_11223)">
<path d="M24.7334 3.96289C23.7649 6.22639 22.6484 10.2275 22.6484 10.2275L22.4775 10.8673L31.7256 13.6407C31.4457 9.3367 28.7156 5.57952 24.7334 3.96289ZM16.1616 3.99661C12.2452 5.63036 9.55207 9.36059 9.27441 13.6401L18.5371 10.8619L18.3613 10.2369C18.3613 10.2369 17.9985 8.94895 17.5068 7.41695C17.1189 6.2082 16.662 5.05836 16.2544 4.11136L16.1616 3.99661ZM9.25 26.7578V31.25L20.5 38.125L31.75 31.25V26.7578L20.5 32.9467L9.25 26.7578Z" fill="#120501"/>
<path d="M16.75 2.8086C19.0954 1.5691 21.8997 1.56352 24.25 2.79365C23.0956 5.00415 21.7442 10.0003 21.7442 10.0003H19.2633C19.2633 10.0003 17.7973 4.79435 16.75 2.8086Z" fill="#120501"/>
<path fill-rule="evenodd" clip-rule="evenodd" d="M20.5 11.25L8 15V25L20.5 31.875L33 25V15L20.5 11.25ZM20.49 13.7425C20.5737 13.7412 20.6569 13.7569 20.7345 13.7883C20.8121 13.8197 20.8826 13.8664 20.9418 13.9256C21.001 13.9848 21.0477 14.0554 21.0791 14.133C21.1106 14.2106 21.1261 14.2937 21.1248 14.3774V28.7524C21.1259 28.8353 21.1106 28.9174 21.0798 28.9943C21.0489 29.0711 21.003 29.1412 20.9449 29.2001C20.8867 29.2591 20.8174 29.306 20.741 29.3379C20.6646 29.3699 20.5826 29.3863 20.4998 29.3863C20.4169 29.3863 20.3349 29.3699 20.2585 29.3379C20.1821 29.306 20.1128 29.2591 20.0547 29.2001C19.9965 29.1412 19.9507 29.0711 19.9198 28.9943C19.8889 28.9174 19.8736 28.8353 19.8748 28.7524V14.3774C19.8735 14.2954 19.8883 14.2138 19.9186 14.1374C19.9488 14.0611 19.9937 13.9915 20.0509 13.9325C20.108 13.8735 20.1762 13.8265 20.2515 13.7939C20.3269 13.7613 20.4079 13.7438 20.49 13.7425ZM17.365 14.3774C17.4485 14.3761 17.5314 14.3916 17.6089 14.4229C17.6863 14.4542 17.7567 14.5007 17.8159 14.5596C17.875 14.6186 17.9218 14.6888 17.9534 14.7661C17.985 14.8434 18.0007 14.9261 17.9998 15.0096V27.4925C18.0009 27.5753 17.9856 27.6577 17.9547 27.7345C17.9239 27.8114 17.878 27.8812 17.8199 27.9402C17.7617 27.9992 17.6924 28.046 17.616 28.078C17.5396 28.11 17.4576 28.1265 17.3748 28.1265C17.2919 28.1265 17.2099 28.11 17.1335 28.078C17.0571 28.046 16.9878 27.9992 16.9297 27.9402C16.8715 27.8812 16.8257 27.8114 16.7948 27.7345C16.7639 27.6577 16.7486 27.5753 16.7498 27.4925V15.0096C16.7478 14.8443 16.8115 14.685 16.9268 14.5665C17.0421 14.448 17.1997 14.38 17.365 14.3774ZM23.615 14.3774C23.6985 14.3761 23.7814 14.3916 23.8589 14.4229C23.9363 14.4542 24.0067 14.5007 24.0658 14.5596C24.125 14.6186 24.1718 14.6888 24.2034 14.7661C24.235 14.8434 24.2507 14.9261 24.2498 15.0096V27.4925C24.2509 27.5753 24.2356 27.6577 24.2047 27.7345C24.1739 27.8114 24.128 27.8812 24.0699 27.9402C24.0117 27.9992 23.9424 28.046 23.866 28.078C23.7896 28.11 23.7076 28.1265 23.6248 28.1265C23.5419 28.1265 23.4599 28.11 23.3835 28.078C23.3071 28.046 23.2378 27.9992 23.1797 27.9402C23.1215 27.8812 23.0757 27.8114 23.0448 27.7345C23.0139 27.6577 22.9986 27.5753 22.9998 27.4925V15.0096C22.9978 14.8443 23.0615 14.685 23.1768 14.5665C23.2921 14.448 23.4497 14.38 23.615 14.3774ZM14.24 15.6274C14.3235 15.6261 14.4064 15.6416 14.4839 15.6729C14.5613 15.7042 14.6317 15.7507 14.6909 15.8096C14.75 15.8686 14.7968 15.9388 14.8284 16.0161C14.86 16.0934 14.8757 16.1761 14.8748 16.2596V25.0024C14.8759 25.0853 14.8606 25.1674 14.8297 25.2443C14.7989 25.3211 14.753 25.3912 14.6949 25.4501C14.6367 25.5091 14.5674 25.556 14.491 25.5879C14.4146 25.6199 14.3326 25.6363 14.2498 25.6363C14.1669 25.6363 14.0849 25.6199 14.0085 25.5879C13.9321 25.556 13.8628 25.5091 13.8047 25.4501C13.7465 25.3912 13.7007 25.3211 13.6698 25.2443C13.6389 25.1674 13.6236 25.0853 13.6248 25.0024V16.2596C13.6228 16.0943 13.6865 15.935 13.8018 15.8165C13.9171 15.698 14.0747 15.63 14.24 15.6274ZM26.74 15.6274C26.8235 15.6261 26.9064 15.6416 26.9839 15.6729C27.0613 15.7042 27.1317 15.7507 27.1908 15.8096C27.25 15.8686 27.2968 15.9388 27.3284 16.0161C27.36 16.0934 27.3757 16.1761 27.3748 16.2596V25.0024C27.3759 25.0853 27.3606 25.1674 27.3298 25.2443C27.2989 25.3211 27.253 25.3912 27.1949 25.4501C27.1367 25.5091 27.0674 25.556 26.991 25.5879C26.9146 25.6199 26.8326 25.6363 26.7498 25.6363C26.6669 25.6363 26.5849 25.6199 26.5085 25.5879C26.4321 25.556 26.3628 25.5091 26.3047 25.4501C26.2465 25.3912 26.2007 25.3211 26.1698 25.2443C26.1389 25.1674 26.1236 25.0853 26.1248 25.0024V16.2596C26.1228 16.0943 26.1865 15.935 26.3018 15.8165C26.4171 15.698 26.5747 15.63 26.74 15.6274ZM11.115 16.8774C11.1985 16.8761 11.2814 16.8916 11.3589 16.9229C11.4363 16.9542 11.5067 17.0007 11.5659 17.0596C11.625 17.1186 11.6718 17.1888 11.7034 17.2661C11.735 17.3434 11.7507 17.4261 11.7498 17.5096V23.7425C11.7509 23.8253 11.7356 23.9077 11.7047 23.9845C11.6739 24.0614 11.628 24.1312 11.5699 24.1902C11.5117 24.2492 11.4424 24.296 11.366 24.328C11.2896 24.36 11.2076 24.3765 11.1248 24.3765C11.0419 24.3765 10.9599 24.36 10.8835 24.328C10.8071 24.296 10.7378 24.2492 10.6797 24.1902C10.6215 24.1312 10.5757 24.0614 10.5448 23.9845C10.5139 23.9077 10.4986 23.8253 10.4998 23.7425V17.5096C10.4978 17.3443 10.5615 17.185 10.6768 17.0665C10.7921 16.948 10.9497 16.88 11.115 16.8774ZM29.865 16.8774C29.9485 16.8761 30.0314 16.8916 30.1089 16.9229C30.1863 16.9542 30.2567 17.0007 30.3158 17.0596C30.375 17.1186 30.4218 17.1888 30.4534 17.2661C30.485 17.3434 30.5007 17.4261 30.4998 17.5096V23.7425C30.5009 23.8253 30.4856 23.9077 30.4547 23.9845C30.4239 24.0614 30.378 24.1312 30.3199 24.1902C30.2617 24.2492 30.1924 24.296 30.116 24.328C30.0396 24.36 29.9576 24.3765 29.8748 24.3765C29.7919 24.3765 29.7099 24.36 29.6335 24.328C29.5571 24.296 29.4878 24.2492 29.4297 24.1902C29.3715 24.1312 29.3257 24.0614 29.2948 23.9845C29.2639 23.9077 29.2486 23.8253 29.2498 23.7425V17.5096C29.2478 17.3443 29.3115 17.185 29.4268 17.0665C29.5421 16.948 29.6997 16.88 29.865 16.8774Z" fill="#120501"/>
<path d="M20.5 12L8.5 16.5L9 25L20 30.5L31.5 25V16L20.5 12Z" fill="#120501"/>
</g>
<defs>
<clipPath id="clip0_5871_11223">
<rect width="40" height="40" fill="white"/>
</clipPath>
</defs>
</svg>
