<svg width="40" height="40" viewBox="0 0 40 40" fill="none" xmlns="http://www.w3.org/2000/svg">
<path d="M38.3798 5.03961L25.6998 1.59961L24.2998 6.79961C23.7798 6.55961 23.2998 6.27961 22.8198 5.95961C22.4598 5.71961 21.9798 5.55961 21.4998 5.55961C20.6198 5.51961 19.7398 6.03961 19.2998 6.83961C18.4998 8.31961 19.2998 9.99961 20.8198 10.3996C21.0598 10.4796 21.3398 10.4796 21.5798 10.4796C22.1398 10.4396 22.7398 10.4796 23.2998 10.5196L21.8998 15.7196L27.0598 17.1196C27.0998 16.5996 27.1398 16.0396 27.0998 15.5196C27.0998 15.2796 27.0998 14.9996 27.1798 14.7596C27.5798 13.2396 29.2998 12.4796 30.7398 13.2396C31.5398 13.6796 32.0198 14.5196 32.0198 15.3996C32.0198 15.9196 31.8598 16.3596 31.6198 16.7596C31.3398 17.1996 31.0598 17.6796 30.8598 18.1596L36.0198 19.5596L39.4598 6.87961C39.6598 6.07961 39.1798 5.23961 38.3798 5.03961Z" fill="#120501"/>
<path d="M6.46 25.3991C6.3 25.8391 6.3 26.2791 6.42 26.7991C6.62 27.6791 7.34 28.3591 8.22 28.5591C9.82 28.9191 11.26 27.7191 11.26 26.1591C11.26 25.8791 11.22 25.6391 11.14 25.3991C10.98 24.8391 10.82 24.2791 10.74 23.7191H16.1V18.3991C15.58 18.4791 15.06 18.5991 14.54 18.7991C14.3 18.8791 14.06 18.9191 13.78 18.9191C12.22 18.9191 11.02 17.4791 11.38 15.8791C11.58 14.9991 12.3 14.2791 13.14 14.0791C13.62 13.9591 14.1 13.9991 14.54 14.1191C15.06 14.2791 15.58 14.3991 16.1 14.5191V9.11914H2.98C2.14 9.11914 1.5 9.79914 1.5 10.5991V23.7591H6.9C6.78 24.3191 6.66 24.8391 6.46 25.3991Z" fill="#120501"/>
<path d="M26.6975 22.1208C26.8575 21.6808 26.8575 21.2008 26.7375 20.6808C26.4975 19.8408 25.8175 19.1608 24.9375 18.9608C23.3375 18.6008 21.8975 19.8008 21.8975 21.3608C21.8975 21.6408 21.9375 21.8808 22.0175 22.1208C22.1775 22.6808 22.3375 23.2008 22.4175 23.8008H17.9375V26.9208C18.1375 26.8808 18.3775 26.8808 18.5775 26.8808C19.8975 26.8808 21.0975 27.4808 21.8975 28.4808C22.6975 29.5208 23.0175 30.8408 22.6975 32.1208C22.3375 33.6008 21.1775 34.8008 19.6575 35.2008C19.2975 35.2808 18.9375 35.3608 18.5775 35.3608C18.3775 35.3608 18.1375 35.3608 17.9375 35.3208V38.4008H29.2975C30.1375 38.4008 30.7775 37.7208 30.7775 36.9208V23.7608H26.2975C26.3775 23.2008 26.5375 22.6408 26.6975 22.1208Z" fill="#120501"/>
<path d="M19.22 33.4405C20.06 33.2005 20.78 32.5205 20.98 31.6805C21.34 30.0805 20.14 28.6405 18.58 28.6405C18.3 28.6405 18.06 28.6805 17.82 28.7605C17.26 28.9205 16.74 29.0805 16.14 29.1605V25.5605H13.02C13.06 25.7605 13.06 26.0005 13.06 26.2005C13.06 28.5605 11.14 30.4405 8.82 30.4405C8.5 30.4405 8.14 30.4005 7.82 30.3205C6.3 29.9605 5.1 28.7605 4.7 27.2805C4.54 26.7205 4.54 26.1205 4.62 25.5605H1.5V36.9205C1.5 37.7605 2.18 38.4005 2.98 38.4005H16.14V33.0005C16.7 33.0805 17.26 33.2405 17.78 33.4005C18.22 33.5605 18.74 33.6005 19.22 33.4405Z" fill="#120501"/>
</svg>
