<svg width="39" height="40" viewBox="0 0 39 40" fill="none" xmlns="http://www.w3.org/2000/svg">
<path fill-rule="evenodd" clip-rule="evenodd" d="M9.98 1.00094C4.74 1.00094 0.5 5.24094 0.5 10.5209V29.5209C0.5 34.7609 4.74 39.0409 10.02 39.0409H29.02C34.26 39.0409 38.54 34.8009 38.54 29.5209V10.4809C38.54 5.24094 34.3 0.960938 29.02 0.960938C29.02 1.00094 9.98 1.00094 9.98 1.00094ZM27.1 10.5209C28.14 10.5209 29.02 11.3609 29.02 12.4409V27.6409C29.02 28.6809 28.18 29.5609 27.1 29.5609C26.06 29.5609 25.18 28.7209 25.18 27.6409V12.4009C25.18 11.3609 26.06 10.5209 27.1 10.5209ZM11.9 21.9209C12.94 21.9209 13.82 22.7609 13.82 23.8409V27.6009C13.82 28.6409 12.98 29.5209 11.9 29.5209C10.86 29.5209 9.98 28.6809 9.98 27.6009V23.8009C9.98 22.7609 10.86 21.9209 11.9 21.9209ZM21.42 18.0809C21.42 17.0409 20.58 16.1609 19.5 16.1609C18.42 16.1609 17.58 17.0009 17.58 18.0809V27.6009C17.58 28.6409 18.42 29.5209 19.5 29.5209C20.58 29.5209 21.42 28.6809 21.42 27.6009V18.0809Z" fill="#120501"/>
</svg>
