<svg width="20" height="20" viewBox="0 0 20 20" fill="none" xmlns="http://www.w3.org/2000/svg">
<g clip-path="url(#clip0_4359_5050)">
<path d="M4.03791 11.2984C4.12322 8.88566 4.51185 7.04457 5.22275 5.77519C5.93365 4.5155 7.03317 3.5562 8.52133 2.91667L6.72986 0.00968992C4.25592 1.1531 2.4455 2.82946 1.30806 5.04845C0.436019 6.71512 0 9.40892 0 13.1395V20.0194H7.8673V11.2984H4.03791ZM15.5166 11.2984C15.6019 8.88566 15.9905 7.04457 16.7014 5.77519C17.4123 4.5155 18.5118 3.5562 20 2.91667L18.2085 0C15.7346 1.14341 13.9242 2.81977 12.7867 5.03876C11.9147 6.70543 11.4787 9.39923 11.4787 13.1202V20H19.346V11.2984H15.5166Z" fill="#120501"/>
</g>
<defs>
<clipPath id="clip0_4359_5050">
<rect width="20" height="20" fill="white"/>
</clipPath>
</defs>
</svg>
