<svg width="60" height="40" viewBox="0 0 60 40" fill="none" xmlns="http://www.w3.org/2000/svg">
<path d="M2.91565 21.0106H3.81788V22.9031H5.93811V21.0106H6.84033C7.22156 21.0197 7.60019 20.9445 7.95007 20.7901C8.28628 20.6573 8.59303 20.4574 8.8523 20.2021C9.1038 19.937 9.3029 19.6251 9.43874 19.2834C9.71499 18.5976 9.71499 17.8287 9.43874 17.1429C9.30042 16.8161 9.10127 16.5198 8.8523 16.2701C8.58961 16.0371 8.28243 15.862 7.95007 15.7557C7.61688 15.6089 7.2575 15.5338 6.89447 15.5352H2.91565C2.55283 15.5359 2.19385 15.6109 1.86005 15.7557C1.52385 15.8885 1.2171 16.0884 0.957826 16.3436C0.712087 16.5941 0.51604 16.8904 0.380402 17.2164C0.237672 17.5545 0.164063 17.9186 0.164062 18.2867C0.164062 18.6547 0.237672 19.0188 0.380402 19.3569C0.512951 19.6982 0.70902 20.0101 0.957826 20.2756C1.21965 20.5275 1.52573 20.727 1.86005 20.8636C2.19888 20.9833 2.5577 21.0333 2.91565 21.0106ZM7.42678 18.2545C7.42441 18.4162 7.35968 18.5704 7.24657 18.6838C7.13346 18.7973 6.98106 18.8609 6.82229 18.8608H5.92006V17.6482H6.82229C6.90492 17.6405 6.98821 17.6505 7.06682 17.6775C7.14544 17.7045 7.21764 17.7479 7.2788 17.805C7.33996 17.8621 7.38873 17.9316 7.42199 18.009C7.45524 18.0864 7.47224 18.17 7.47189 18.2545H7.42678ZM2.91565 17.6482H3.81788V18.8608H2.91565C2.75772 18.8608 2.60627 18.797 2.49459 18.6832C2.38292 18.5695 2.32018 18.4153 2.32018 18.2545C2.32018 18.0937 2.38292 17.9395 2.49459 17.8258C2.60627 17.712 2.75772 17.6482 2.91565 17.6482Z" fill="#E54D37"/>
<path d="M10.1282 16.6736C10.1239 16.6917 10.1239 16.7106 10.1282 16.7287V19.7972C10.1282 19.7972 10.1282 19.8707 10.1282 19.9074V22.9207H12.2394V21.0098H14.6483C15.0111 21.0091 15.3701 20.9341 15.7039 20.7893C16.0382 20.6528 16.3443 20.4533 16.6061 20.2014C16.855 19.9359 17.051 19.6239 17.1836 19.2827C17.3263 18.9446 17.3999 18.5804 17.3999 18.2124C17.3999 17.8444 17.3263 17.4802 17.1836 17.1421C17.0479 16.8162 16.8519 16.5198 16.6061 16.2694C16.3469 16.0142 16.0401 15.8143 15.7039 15.6814C15.3701 15.5366 15.0111 15.4616 14.6483 15.4609H10.1372L10.1282 16.6736ZM14.6393 17.6566C14.7972 17.6566 14.9487 17.7205 15.0604 17.8342C15.172 17.9479 15.2348 18.1021 15.2348 18.2629C15.2348 18.4238 15.172 18.578 15.0604 18.6917C14.9487 18.8054 14.7972 18.8693 14.6393 18.8693H12.2304V17.6474L14.6393 17.6566Z" fill="#E54D37"/>
<path d="M25.8044 22.8941V15.5078H25.7863H23.4135L19.985 19.844V15.5078H17.8828V22.9033H17.9009H20.2827L23.7022 18.5579V22.8941H25.8044Z" fill="#E54D37"/>
<path d="M29.6924 15.5156L26.1016 22.8927H28.4564L30.6307 18.4095L32.8141 22.8927H35.1599L31.5781 15.5156H29.6924Z" fill="#E54D37"/>
<path d="M35.4141 22.9121H37.7689L38.3553 21.6902H41.5672L42.1537 22.8845H44.4995L40.8906 15.4707H39.0139L35.4141 22.9121ZM39.9252 18.3921L40.5026 19.5681H39.3929L39.9252 18.3921Z" fill="#E54D37"/>
<path d="M46.9237 15.498H44.8125V22.9119H46.9237V20.2752H49.9642V22.9119H52.0664V15.498H49.9642V18.1347H46.9237V15.498Z" fill="#E54D37"/>
<path d="M56.9587 20.7536H56.3C55.8956 20.7536 55.5078 20.59 55.2219 20.2988C54.9359 20.0076 54.7753 19.6127 54.7753 19.201C54.7753 18.7892 54.9359 18.3943 55.2219 18.1031C55.5078 17.812 55.8956 17.6484 56.3 17.6484H56.9587C57.2062 17.6495 57.4497 17.712 57.6682 17.8305C57.8867 17.9489 58.0736 18.1198 58.2128 18.3282L59.9541 17.1155C59.622 16.6185 59.1753 16.2121 58.653 15.9318C58.1308 15.6515 57.549 15.5059 56.9587 15.5078H56.3C55.8132 15.5075 55.3314 15.6075 54.8835 15.8018C54.225 16.0815 53.6627 16.5537 53.2677 17.1587C52.8726 17.7638 52.6626 18.4744 52.6641 19.201C52.6638 19.6967 52.762 20.1873 52.9528 20.6433C53.3144 21.5274 54.0007 22.2328 54.8655 22.6093C55.3134 22.8036 55.7952 22.9036 56.282 22.9033H56.9406C57.5395 22.9082 58.1302 22.7614 58.6594 22.4759C59.1886 22.1904 59.6397 21.7753 59.9721 21.268L58.2218 20.0737C58.0807 20.2823 57.8921 20.4531 57.6722 20.5715C57.4522 20.6899 57.2074 20.7523 56.9587 20.7536Z" fill="#E54D37"/>
<path d="M3.43826 10.372C4.08867 10.6536 4.78857 10.7974 5.49533 10.7946H6.46071C7.50172 10.7952 8.5195 10.4813 9.38518 9.89254C10.2509 9.30379 10.9255 8.46673 11.3237 7.48733C11.6034 6.82413 11.7477 6.1099 11.7477 5.38812C11.7477 4.66634 11.6034 3.95211 11.3237 3.28891C11.0625 2.64895 10.6792 2.06813 10.1959 1.58015C9.20243 0.575201 7.86107 0.00775255 6.46071 0H5.49533C4.78797 0.00037983 4.08809 0.147287 3.43826 0.431784C2.80976 0.697728 2.23936 1.08806 1.76012 1.58015C1.27702 2.07019 0.89107 2.65033 0.623315 3.28891C0.210929 4.2764 0.0988164 5.36711 0.301466 6.42014C0.504115 7.47317 1.01221 8.44013 1.76012 9.19609C2.23689 9.69809 2.80747 10.0979 3.43826 10.372ZM5.49533 3.15111H6.45169C6.75566 3.13138 7.06038 3.17532 7.34702 3.2802C7.63366 3.38508 7.89615 3.54868 8.11827 3.7609C8.34039 3.97312 8.51743 4.22945 8.63845 4.51407C8.75947 4.79868 8.82191 5.10553 8.82191 5.41568C8.82191 5.72583 8.75947 6.03268 8.63845 6.3173C8.51743 6.60191 8.34039 6.85824 8.11827 7.07046C7.89615 7.28268 7.63366 7.44628 7.34702 7.55116C7.06038 7.65604 6.75566 7.69998 6.45169 7.68025H5.49533C4.92998 7.64357 4.39957 7.38902 4.01194 6.96836C3.62431 6.54771 3.40856 5.99252 3.40856 5.41568C3.40856 4.83884 3.62431 4.28366 4.01194 3.863C4.39957 3.44234 4.92998 3.18779 5.49533 3.15111Z" fill="#F9F2F1"/>
<path d="M12.6376 10.8153H15.7052V8.05923H19.2058C19.7322 8.0578 20.2532 7.95169 20.7396 7.74688C21.2084 7.54401 21.6342 7.25077 21.9937 6.88331C22.7276 6.13119 23.1395 5.11399 23.1395 4.05374C23.1425 3.51734 23.0381 2.98595 22.8328 2.49197C22.4361 1.52764 21.6849 0.759433 20.7396 0.351417C20.2532 0.146603 19.7322 0.0404977 19.2058 0.0390625H12.6286V6.28616C12.6238 6.3381 12.6238 6.39039 12.6286 6.44234L12.6376 10.8153ZM19.2058 3.14424C19.3969 3.19713 19.5657 3.31259 19.686 3.4728C19.8063 3.63302 19.8714 3.8291 19.8714 4.03077C19.8714 4.23245 19.8063 4.42852 19.686 4.58874C19.5657 4.74896 19.3969 4.86442 19.2058 4.91731H15.7052V3.14424H19.2058Z" fill="#F9F2F1"/>
<path d="M48.0675 7.68004H40.5519V6.97264H48.0585V3.85828H40.5519V3.15089H48.0585V0.0273438H37.4844V10.7944H48.0675V7.68004Z" fill="#F9F2F1"/>
<path d="M56.9037 0.0175781V3.8577H52.4738V0.0175781H49.4062V10.8122H52.4738V6.97206H56.9037V10.8122H59.9713V0.0175781H56.9037Z" fill="#F9F2F1"/>
<path d="M22.5234 7.67924V10.7844H35.9215V7.67924H34.1982L30.5081 0.0449219H27.8015L24.0843 7.67924H22.5234ZM29.1187 4.26171L30.7788 7.67924H27.4586L29.1187 4.26171Z" fill="#F9F2F1"/>
<path d="M33.4295 29.536C33.04 29.1405 32.5768 28.8282 32.0672 28.6173C31.5393 28.3896 30.9713 28.2739 30.398 28.2774H23.2344V30.1148C23.2344 30.1148 23.2344 30.1791 23.2344 30.2067V35.0482C23.2344 35.1033 23.2344 35.1676 23.2344 35.2227V39.9999H26.5726V36.9407H30.38C30.9533 36.9442 31.5212 36.8285 32.0491 36.6008C32.5588 36.3899 33.0219 36.0776 33.4115 35.6821C34.0156 35.0682 34.4246 34.2836 34.5855 33.4302C34.7464 32.5767 34.6517 31.6937 34.3137 30.8957C34.1089 30.3881 33.8085 29.9262 33.4295 29.536ZM30.398 33.5875H26.5816V31.6582H30.398C30.6493 31.6582 30.8903 31.7598 31.0679 31.9407C31.2456 32.1216 31.3454 32.367 31.3454 32.6228C31.3454 32.8787 31.2456 33.124 31.0679 33.3049C30.8903 33.4858 30.6493 33.5875 30.398 33.5875Z" fill="#F9F2F1"/>
<path d="M45.8448 29.9406C45.3114 29.395 44.6772 28.9624 43.9789 28.6675C43.2805 28.3727 42.5317 28.2215 41.7757 28.2227H40.7472C39.6072 28.2213 38.4925 28.5647 37.5444 29.2092C36.5963 29.8537 35.8575 30.7704 35.4217 31.843C34.9858 32.9156 34.8726 34.0958 35.0963 35.234C35.32 36.3722 35.8705 37.4172 36.6782 38.2364C37.1972 38.7647 37.8093 39.1885 38.4826 39.4858C39.1896 39.7936 39.9512 39.95 40.7201 39.9452H41.7667C42.5356 39.95 43.2972 39.7936 44.0042 39.4858C44.6775 39.1885 45.2897 38.7647 45.8087 38.2364C46.3331 37.7107 46.7528 37.0868 47.0447 36.399C47.346 35.6722 47.5012 34.8912 47.5012 34.1023C47.5012 33.3134 47.346 32.5324 47.0447 31.8056C46.7666 31.1109 46.3591 30.4776 45.8448 29.9406ZM41.7757 36.546H40.7472C40.1059 36.546 39.4909 36.2866 39.0374 35.8249C38.584 35.3631 38.3292 34.7369 38.3292 34.0839C38.3292 33.4309 38.584 32.8047 39.0374 32.3429C39.4909 31.8812 40.1059 31.6218 40.7472 31.6218H41.7938C42.4351 31.6218 43.0501 31.8812 43.5035 32.3429C43.957 32.8047 44.2117 33.4309 44.2117 34.0839C44.2117 34.7369 43.957 35.3631 43.5035 35.8249C43.0501 36.2866 42.4351 36.546 41.7938 36.546H41.7757Z" fill="#F9F2F1"/>
<path d="M59.0668 33.6883L59.157 33.4954C59.3469 33.0326 59.445 32.5362 59.4458 32.0346V31.9611C59.445 31.4596 59.3469 30.9632 59.157 30.5004C58.9704 30.054 58.7008 29.6484 58.3631 29.3061C57.672 28.6077 56.7384 28.2149 55.7647 28.2129H48.5469V39.9629H56.297C56.7832 39.9657 57.2651 39.8696 57.7144 39.6803C58.1636 39.491 58.5713 39.2123 58.9134 38.8605C59.2485 38.5178 59.515 38.1122 59.6984 37.6662C59.8959 37.2023 59.9972 36.7019 59.9961 36.1963C59.9972 35.6907 59.8959 35.1903 59.6984 34.7264C59.5478 34.3461 59.3341 33.995 59.0668 33.6883ZM51.849 31.612H55.7647C55.8565 31.612 55.9446 31.6485 56.0103 31.7137C56.0761 31.7789 56.1142 31.8677 56.1165 31.9611V32.0346C56.1142 32.1281 56.0761 32.2169 56.0103 32.2821C55.9446 32.3473 55.8565 32.3838 55.7647 32.3837H51.858L51.849 31.612ZM56.6128 36.2055C56.6128 36.3005 56.5757 36.3917 56.5097 36.4588C56.4437 36.526 56.3542 36.5638 56.2609 36.5638H51.858V35.7829H56.2699C56.3169 35.7829 56.3634 35.7924 56.4067 35.811C56.45 35.8296 56.4892 35.8568 56.522 35.8911C56.5548 35.9253 56.5805 35.9659 56.5976 36.0104C56.6148 36.055 56.623 36.1026 56.6218 36.1504L56.6128 36.2055Z" fill="#F9F2F1"/>
<path d="M15.6094 32.3754V35.793H21.4919V32.3754H15.6094Z" fill="#F9F2F1"/>
<path d="M16.6674 28.2136H12.1562V31.6127H16.6674C16.9991 31.5921 17.3315 31.6409 17.6441 31.756C17.9567 31.8711 18.2428 32.0502 18.4849 32.2821C18.7269 32.514 18.9198 32.7939 19.0517 33.1046C19.1835 33.4153 19.2516 33.7502 19.2516 34.0886C19.2516 34.4271 19.1835 34.7619 19.0517 35.0726C18.9198 35.3833 18.7269 35.6632 18.4849 35.8951C18.2428 36.127 17.9567 36.3061 17.6441 36.4212C17.3315 36.5363 16.9991 36.5851 16.6674 36.5645H12.1562V39.9636H16.6674C17.4443 39.9949 18.2194 39.8661 18.9462 39.585C19.673 39.3038 20.3366 38.8761 20.8971 38.3275C21.4576 37.7788 21.9036 37.1206 22.2082 36.3922C22.5128 35.6638 22.6698 34.8803 22.6698 34.0886C22.6698 33.2969 22.5128 32.5134 22.2082 31.785C21.9036 31.0566 21.4576 30.3984 20.8971 29.8497C20.3366 29.3011 19.673 28.8734 18.9462 28.5922C18.2194 28.3111 17.4443 28.1823 16.6674 28.2136Z" fill="#F9F2F1"/>
<path d="M10.5136 36.5645H6.00244C5.67068 36.5851 5.33828 36.5363 5.02572 36.4212C4.71315 36.3061 4.42703 36.127 4.18496 35.8951C3.94288 35.6632 3.74998 35.3833 3.61813 35.0726C3.48627 34.7619 3.41825 34.4271 3.41825 34.0886C3.41825 33.7502 3.48627 33.4153 3.61813 33.1046C3.74998 32.7939 3.94288 32.514 4.18496 32.2821C4.42703 32.0502 4.71315 31.8711 5.02572 31.756C5.33828 31.6409 5.67068 31.5921 6.00244 31.6127H10.5136V28.2136H6.00244C5.22556 28.1823 4.45047 28.3111 3.72365 28.5922C2.99683 28.8734 2.33326 29.3011 1.77273 29.8497C1.2122 30.3984 0.766253 31.0566 0.461634 31.785C0.157015 32.5134 0 33.2969 0 34.0886C0 34.8803 0.157015 35.6638 0.461634 36.3922C0.766253 37.1206 1.2122 37.7788 1.77273 38.3275C2.33326 38.8761 2.99683 39.3038 3.72365 39.585C4.45047 39.8661 5.22556 39.9949 6.00244 39.9636H10.5136V36.5645Z" fill="#F9F2F1"/>
</svg>
