<svg width="116" height="140" viewBox="0 0 116 140" fill="none" xmlns="http://www.w3.org/2000/svg">
<path d="M114.465 65.3846C120.145 20.7945 108.168 0.666157 104.077 0.0843093C100.343 -0.449051 93.4098 5.95128 93.4098 5.95128C93.4098 5.95128 81.3062 11.1212 69.3843 13.1698C65.8932 13.7699 62.4264 14.0972 59.2747 13.9517C35.8068 12.885 25.0366 6.01795 23.5395 10.2182C20.8727 17.6852 22.4728 15.0184 22.4728 15.0184C22.4728 15.0184 28.7883 24.1825 32.8309 38.3772C32.8491 38.4317 32.8552 38.4863 32.8734 38.5348C33.2128 39.7348 33.534 40.9713 33.837 42.2441C34.4128 44.6684 34.9098 47.2201 35.2917 49.8747L40.601 53.4143H35.722C36.6069 62.2087 36.1402 72.0031 33.134 82.2158C31.5096 87.7494 29.7156 92.5133 27.8488 96.6165H28.6731C28.9277 96.6165 28.3034 97.0469 27.3882 97.6105C25.0729 102.538 22.6546 106.472 20.2969 109.599C12.2177 120.345 4.85979 121.684 4.85979 121.684C4.85979 121.684 -3.14062 136.619 48.062 135.552C61.5718 135.273 76.6211 141.734 86.1731 139.364C86.8276 139.207 87.464 139.001 88.0641 138.752C96.0221 135.437 101.392 126.861 105.926 110.405L104.004 104.896L103.895 104.593L104.041 104.708L106.823 106.993C109.223 97.5014 111.411 85.6463 113.659 71.0152C113.69 70.8092 113.72 70.597 113.75 70.3909L110.441 67.6999L109.932 67.2817L110.526 67.0332L114.459 65.3786L114.465 65.3846Z" fill="url(#paint0_linear_5622_11381)"/>
<g style="mix-blend-mode:multiply" opacity="0.4">
<path d="M114.462 65.3848L110.528 67.0395C112.456 50.7295 105.94 40.9593 102.467 39.5532C96.8247 37.2682 45.3978 41.6866 32.8638 38.541C32.6638 38.4925 32.5547 38.5653 32.5547 38.5653L32.8214 38.3834L69.3808 13.164C81.3087 11.1154 93.4063 5.94542 93.4063 5.94542C93.4063 5.94542 100.34 -0.454911 104.074 0.07845C108.165 0.660298 120.141 20.7886 114.462 65.3788V65.3848Z" fill="#8E4B33"/>
</g>
<path style="mix-blend-mode:multiply" opacity="0.74" d="M101.412 8.08703C101.273 8.08703 101.14 8.09915 101 8.12339C101 8.12339 93.9454 7.02031 85.945 12.8873C77.9446 18.7542 50.7432 16.6208 50.2098 16.6208C50.2098 16.6208 44.8762 23.5545 58.2102 31.5549C68.7926 37.9067 85.945 35.2884 96.0788 34.7551C97.1152 36.7915 99.9214 34.2217 101.412 34.2217C104.655 34.2217 108.879 29.173 108.879 21.9544C108.879 14.7359 104.655 8.08703 101.412 8.08703Z" fill="url(#paint1_linear_5622_11381)"/>
<path d="M100.869 8.08481C100.869 8.08481 98.2022 11.2729 98.2022 18.752C98.2022 31.5527 103.124 29.8496 103.536 29.9526C103.536 29.9526 102.469 31.5527 86.4683 32.086C70.7826 32.6073 45.4844 21.9522 45.4844 21.9522L80.5953 12.8184C80.5953 12.8184 92.3353 7.55145 100.869 8.08481Z" fill="url(#paint2_linear_5622_11381)"/>
<path style="mix-blend-mode:multiply" opacity="0.74" d="M98.2425 20.5841C98.2425 20.5841 98.5879 21.3539 100.794 20.5841C103.006 19.8205 103.006 19.2871 103.006 19.2871C103.006 19.2871 104.606 29.9543 103.54 29.9543C102.473 29.9543 99.7395 30.3483 98.9637 25.8268C98.2061 21.4206 98.2425 20.5902 98.2425 20.5902V20.5841Z" fill="url(#paint3_linear_5622_11381)"/>
<path style="mix-blend-mode:multiply" opacity="0.74" d="M87.0013 114.225C86.8619 114.213 86.9589 114.146 86.8195 114.152C86.8195 114.152 79.704 112.37 70.952 117.043C62.194 121.716 34.5684 116.831 34.0229 116.776C34.0229 116.776 27.8892 122.728 40.7626 131.662C50.9753 138.747 68.7822 138.105 79.2009 138.674C80.0616 140.699 83.183 138.577 84.7103 138.735C88.0256 139.08 92.8441 134.777 93.5411 127.989C94.2441 121.207 90.3227 114.57 87.0074 114.231L87.0013 114.225Z" fill="url(#paint4_linear_5622_11381)"/>
<path d="M80.078 124.891C80.2417 123.31 80.6659 121.897 81.2296 120.649H79.9326C79.9326 120.649 80.6781 120.412 81.4963 120.097C83.4721 116.17 86.7087 114.103 86.7087 114.103C78.0294 112.697 65.5015 116.412 65.5015 116.412L28.6875 121.291C28.6875 121.291 53.5373 133.983 69.6411 135.153C86.0662 136.34 87.3148 134.953 87.3148 134.953C86.9026 134.813 78.8355 136.934 80.078 124.904V124.891Z" fill="url(#paint5_linear_5622_11381)"/>
<path d="M89 114.982C89.2546 115.116 89.2364 115.067 89 114.982Z" fill="url(#paint6_linear_5622_11381)"/>
<path style="mix-blend-mode:multiply" opacity="0.74" d="M85.5993 129.691L90.5632 128.533C91.0784 126.303 91.2723 124.357 91.2723 124.357C91.2723 124.357 86.1387 126.539 83.8053 127.024C81.4718 127.509 80.1263 125.042 80.1263 125.042C80.1263 125.042 79.5384 125.958 80.3566 130.043C81.2112 134.309 84.872 135.025 86.4721 135.025C88.0722 135.025 89.1146 133.176 89.8601 131.018L85.5932 129.691H85.5993Z" fill="url(#paint7_linear_5622_11381)"/>
<path d="M72.5787 59.3062C68.0088 59.3062 65.0207 57.0757 62.3054 55.0514C60.6872 53.8392 59.1538 52.6998 57.2991 51.9482C51.6504 49.6693 47.5289 51.7724 47.3532 51.8633C46.444 52.3422 45.3167 51.9967 44.8318 51.0936C44.3469 50.1905 44.6803 49.0693 45.5834 48.5783C45.8137 48.4511 51.3534 45.5236 58.6931 48.4874C60.9963 49.4147 62.7964 50.7603 64.5359 52.0573C68.0391 54.6756 70.8089 56.7424 76.8456 54.8393C80.4579 53.6998 83.1186 51.9846 85.6885 50.3239C90.0766 47.4934 94.2162 44.8266 101.447 46.2812C102.459 46.4873 103.114 47.4692 102.908 48.4814C102.701 49.4935 101.72 50.1481 100.707 49.942C94.9677 48.7844 91.9191 50.7481 87.7128 53.4634C85.0642 55.1726 82.064 57.106 77.9729 58.397C75.9486 59.0395 74.1667 59.3062 72.5787 59.3062Z" fill="url(#paint8_linear_5622_11381)"/>
<path d="M68.3002 75.1919C65.1243 75.1919 61.9908 73.5191 57.9361 70.6825C53.8268 67.8036 48.2628 72.4038 48.2083 72.4463C47.4204 73.113 46.2385 73.0039 45.5778 72.216C44.9172 71.428 45.0142 70.2522 45.8082 69.5855C46.1233 69.3188 53.6449 63.1125 60.0816 67.6218C67.1426 72.5675 69.5003 72.6645 74.8945 68.24C80.9494 63.2761 88.0164 62.9428 95.9077 67.246C96.8108 67.7369 97.1441 68.8764 96.6532 69.7795C96.1623 70.6825 95.0289 71.022 94.1197 70.525C87.6103 66.9733 82.0949 67.1733 77.2643 71.1311C73.8278 73.9433 71.0519 75.1919 68.3063 75.1919H68.3002Z" fill="url(#paint9_linear_5622_11381)"/>
<path d="M69.668 92.1619C67.1709 92.1619 64.2435 91.3255 60.613 88.8284C52.9702 83.5736 44.194 86.2585 44.1091 86.2828C43.1273 86.5919 42.0787 86.0525 41.7696 85.0706C41.4545 84.0887 41.9939 83.0402 42.9758 82.725C43.4 82.5856 53.5521 79.4339 62.7344 85.7494C68.5953 89.7739 71.4924 88.4768 75.1592 86.8222C77.6624 85.6949 80.4989 84.416 84.3052 84.9009C85.3295 85.0282 86.0568 85.9615 85.9234 86.9858C85.7961 88.0101 84.8567 88.7314 83.8385 88.6041C81.0686 88.2586 78.9352 89.2163 76.6866 90.2284C74.6138 91.1618 72.3955 92.1558 69.668 92.1558V92.1619Z" fill="url(#paint10_linear_5622_11381)"/>
<path d="M71.271 108.359C70.9619 108.359 70.6467 108.28 70.3558 108.116C54.6035 99.2551 46.4819 103.473 46.397 103.516C45.5 104.007 44.3666 103.686 43.8635 102.789C43.3666 101.898 43.6696 100.776 44.5545 100.267C44.9485 100.043 54.3914 94.8549 72.1802 104.861C73.0772 105.364 73.3984 106.504 72.8893 107.401C72.5438 108.013 71.9135 108.353 71.2589 108.353L71.271 108.359Z" fill="url(#paint11_linear_5622_11381)"/>
<path style="mix-blend-mode:screen" opacity="0.2" d="M69.1011 106.993C60.9431 120.794 33.5417 113.921 20.3047 109.599C22.6624 106.466 25.0807 102.538 27.396 97.6106C28.3112 97.053 28.9354 96.6166 28.6809 96.6166H27.8566C29.7234 92.5134 31.5174 87.7495 33.1417 82.2159C36.1419 72.0032 36.6146 62.2088 35.7297 53.4144H40.6088L35.2994 49.8748C34.9176 47.2202 34.4206 44.6685 33.8448 42.2441C44.0877 42.3411 66.9677 42.723 77.9501 44.3533C92.3508 46.4868 80.0108 88.5677 69.1133 106.999L69.1011 106.993Z" fill="url(#paint12_linear_5622_11381)"/>
<path style="mix-blend-mode:multiply" opacity="0.4" d="M104.011 104.902L105.932 110.412C101.399 126.867 96.0287 135.443 88.0707 138.759C87.4707 139.007 86.8343 139.213 86.1797 139.371C99.9804 133.122 100.859 119.606 104.017 104.902H104.011Z" fill="url(#paint13_linear_5622_11381)"/>
<path style="mix-blend-mode:multiply" opacity="0.4" d="M110.447 67.7012L113.756 70.3922C113.726 70.5983 113.696 70.8104 113.666 71.0165C111.417 85.6475 109.229 97.4966 106.829 106.994L104.047 104.709C104.059 104.679 104.065 104.649 104.071 104.618C106.847 91.7994 109.114 78.8169 110.447 67.7012Z" fill="url(#paint14_linear_5622_11381)"/>
<path style="mix-blend-mode:multiply" opacity="0.4" d="M88.0687 138.76C85.8322 139.881 81.1168 140.384 74.1286 139.669C64.619 138.681 22.6653 134.608 10.1374 135.081C9.30102 135.111 8.58584 135.014 7.97974 134.79C6.54331 134.444 5.24021 133.681 4.125 132.596C7.58578 133.141 12.0163 133.456 17.6712 133.402C67.4192 132.929 66.4191 139.19 83.0139 138.535C83.8806 138.505 84.7898 138.451 85.7534 138.378C86.2807 138.341 87.5111 138.814 88.0687 138.76Z" fill="url(#paint15_linear_5622_11381)"/>
<path d="M100.338 34.2202C96.9626 34.3171 93.8897 31.1594 92.8714 26.7531C92.3502 24.4863 92.0775 22.3893 91.9926 20.4437L71.0036 23.559L81.1375 20.8861L92.029 17.4011C92.1866 15.0252 92.6411 12.9221 93.2896 11.0735L89.9319 12.316L94.4655 8.32793C96.2595 4.8126 98.6475 2.48521 100.345 1.14574C101.842 -0.0300748 104.23 0.236606 103.011 0.0790217C100.696 -0.211902 98.8536 0.321458 96.9323 1.33363C96.9141 1.33363 96.8959 1.35181 96.8777 1.35788C91.7138 4.07923 85.9196 10.1704 68.8763 12.8797C56.712 14.8131 38.7656 10.4796 31.341 8.51582C31.3046 8.49157 31.2683 8.47339 31.2319 8.44915C30.1652 7.86124 29.0075 7.54001 27.8075 7.54001C22.9042 7.54001 18.8131 12.8554 17.8736 19.9164L23.0072 23.5408H17.6797C17.8555 31.3352 21.8011 37.6628 26.8256 38.4022C27.4378 38.5658 28.1348 38.6022 28.9409 38.4749C41.0082 36.6082 81.98 36.3415 91.2774 36.3415C104.078 36.3415 106.212 31.0079 106.212 31.0079C106.212 31.0079 103.296 34.1293 100.345 34.208L100.338 34.2202Z" fill="url(#paint16_linear_5622_11381)"/>
<path style="mix-blend-mode:screen" opacity="0.2" d="M96.8732 1.36523C83.8058 8.51106 93.4063 15.5538 65.6716 16.6206C45.7736 17.3842 19.2692 23.5543 20.3359 14.4871C20.8511 10.0869 25.6695 5.95335 31.2274 8.46257C31.2637 8.48681 31.3001 8.505 31.3365 8.52924C38.755 10.493 56.7014 14.8265 68.8717 12.8931C85.915 10.1839 91.7093 4.09265 96.8732 1.3713V1.36523Z" fill="url(#paint17_linear_5622_11381)"/>
<path d="M85.7563 138.371C85.0593 138.565 84.332 138.662 83.6168 138.613C83.4168 138.595 83.2107 138.571 83.0167 138.534C79.8287 137.953 77.2831 134.807 76.7073 130.807C76.3012 128.007 76.3376 125.691 76.677 123.776L68.3433 121.691L77.8044 120.285C80.0105 115.958 84.332 114.933 87.0109 114.757C87.9988 114.691 88.6898 114.867 89.0049 114.988C88.908 114.939 88.7807 114.867 88.611 114.757C87.3624 113.982 85.926 113.606 83.9138 113.497C79.0287 113.23 70.7434 114.497 53.494 115.23C40.857 115.764 22.9106 109.794 15.5102 107.163C14.4435 106.46 13.2616 106.012 11.9828 105.878C7.54619 105.418 3.35203 108.945 1.3095 114.291L1.46103 114.406L3.27324 115.824L0.467036 117.115C0.309452 117.842 0.188234 118.588 0.109442 119.352C-0.454223 124.813 1.20041 129.789 4.12783 132.601C5.24304 133.686 6.5522 134.443 7.98258 134.795C8.58867 135.013 9.30386 135.116 10.1403 135.086C22.6682 134.613 64.6219 138.686 74.1314 139.674C81.1257 140.395 85.1562 139.365 87.3927 138.244C89.2837 137.304 89.8959 136.298 89.9262 136.237C89.811 136.328 87.9443 137.789 85.7563 138.383V138.371Z" fill="url(#paint18_linear_5622_11381)"/>
<path style="mix-blend-mode:screen" opacity="0.2" d="M83.9011 113.496C73.7612 114.896 63.3425 121.775 38.4624 118.49C10.1943 114.757 17.9462 110.459 9.66094 109.423C5.39406 108.89 2.76362 112.169 1.4484 114.405L1.29688 114.29C3.3394 108.944 7.53356 105.423 11.9702 105.877C13.2429 106.011 14.4309 106.459 15.4976 107.162C22.898 109.799 40.8504 115.763 53.4814 115.229C70.7307 114.496 79.016 113.229 83.9011 113.496Z" fill="url(#paint19_linear_5622_11381)"/>
<defs>
<linearGradient id="paint0_linear_5622_11381" x1="-5.18921" y1="52.8143" x2="72.833" y2="69.2697" gradientUnits="userSpaceOnUse">
<stop stop-color="#ECCFB2"/>
<stop offset="1" stop-color="#B46E52"/>
</linearGradient>
<linearGradient id="paint1_linear_5622_11381" x1="62.5256" y1="3.11707" x2="95.9576" y2="35.2702" gradientUnits="userSpaceOnUse">
<stop stop-color="#B09B85"/>
<stop offset="1" stop-color="#945A43"/>
</linearGradient>
<linearGradient id="paint2_linear_5622_11381" x1="61.9276" y1="4.19976" x2="93.3232" y2="34.3953" gradientUnits="userSpaceOnUse">
<stop stop-color="#B09B85"/>
<stop offset="1" stop-color="#945A43"/>
</linearGradient>
<linearGradient id="paint3_linear_5622_11381" x1="98.0425" y1="20.6508" x2="104.909" y2="27.2511" gradientUnits="userSpaceOnUse">
<stop stop-color="#B09B85"/>
<stop offset="1" stop-color="#945A43"/>
</linearGradient>
<linearGradient id="paint4_linear_5622_11381" x1="48.2803" y1="105.509" x2="76.2851" y2="141.578" gradientUnits="userSpaceOnUse">
<stop stop-color="#B09B85"/>
<stop offset="1" stop-color="#945A43"/>
</linearGradient>
<linearGradient id="paint5_linear_5622_11381" x1="44.064" y1="104.581" x2="78.3325" y2="137.541" gradientUnits="userSpaceOnUse">
<stop stop-color="#B09B85"/>
<stop offset="1" stop-color="#945A43"/>
</linearGradient>
<linearGradient id="paint6_linear_5622_11381" x1="89.0606" y1="115.37" x2="87.1635" y2="134.741" gradientUnits="userSpaceOnUse">
<stop stop-color="#ECCFB2"/>
<stop offset="1" stop-color="#B46E52"/>
</linearGradient>
<linearGradient id="paint7_linear_5622_11381" x1="81.29" y1="123.666" x2="89.3268" y2="131.4" gradientUnits="userSpaceOnUse">
<stop stop-color="#B09B85"/>
<stop offset="1" stop-color="#945A43"/>
</linearGradient>
<linearGradient id="paint8_linear_5622_11381" x1="50.1654" y1="24.6498" x2="114.169" y2="91.0957" gradientUnits="userSpaceOnUse">
<stop stop-color="#C42612"/>
<stop offset="1" stop-color="#660B09"/>
</linearGradient>
<linearGradient id="paint9_linear_5622_11381" x1="38.335" y1="36.0444" x2="102.338" y2="102.484" gradientUnits="userSpaceOnUse">
<stop stop-color="#C42612"/>
<stop offset="1" stop-color="#660B09"/>
</linearGradient>
<linearGradient id="paint10_linear_5622_11381" x1="26.7749" y1="47.1838" x2="90.7782" y2="113.624" gradientUnits="userSpaceOnUse">
<stop stop-color="#C42612"/>
<stop offset="1" stop-color="#660B09"/>
</linearGradient>
<linearGradient id="paint11_linear_5622_11381" x1="14.6863" y1="58.8288" x2="78.6896" y2="125.269" gradientUnits="userSpaceOnUse">
<stop stop-color="#C42612"/>
<stop offset="1" stop-color="#660B09"/>
</linearGradient>
<linearGradient id="paint12_linear_5622_11381" x1="20.3047" y1="78.7127" x2="84.4716" y2="78.7127" gradientUnits="userSpaceOnUse">
<stop stop-color="#ECCFB2"/>
<stop offset="1" stop-color="#B46E52"/>
</linearGradient>
<linearGradient id="paint13_linear_5622_11381" x1="87.6282" y1="120.558" x2="97.8288" y2="122.709" gradientUnits="userSpaceOnUse">
<stop stop-color="#ECCFB2"/>
<stop offset="1" stop-color="#B46E52"/>
</linearGradient>
<linearGradient id="paint14_linear_5622_11381" x1="105.55" y1="86.6961" x2="109.168" y2="87.4598" gradientUnits="userSpaceOnUse">
<stop stop-color="#ECCFB2"/>
<stop offset="1" stop-color="#B46E52"/>
</linearGradient>
<linearGradient id="paint15_linear_5622_11381" x1="4.11894" y1="136.299" x2="88.0687" y2="136.299" gradientUnits="userSpaceOnUse">
<stop stop-color="#ECCFB2"/>
<stop offset="1" stop-color="#B46E52"/>
</linearGradient>
<linearGradient id="paint16_linear_5622_11381" x1="59.597" y1="5.13989" x2="63.5245" y2="36.293" gradientUnits="userSpaceOnUse">
<stop stop-color="#ECCFB2"/>
<stop offset="1" stop-color="#B46E52"/>
</linearGradient>
<linearGradient id="paint17_linear_5622_11381" x1="20.3056" y1="10.3718" x2="96.8732" y2="10.3718" gradientUnits="userSpaceOnUse">
<stop stop-color="#ECCFB2"/>
<stop offset="1" stop-color="#B46E52"/>
</linearGradient>
<linearGradient id="paint18_linear_5622_11381" x1="46.6391" y1="111.212" x2="44.742" y2="130.583" gradientUnits="userSpaceOnUse">
<stop stop-color="#ECCFB2"/>
<stop offset="1" stop-color="#B46E52"/>
</linearGradient>
<linearGradient id="paint19_linear_5622_11381" x1="1.29688" y1="112.599" x2="83.9011" y2="112.599" gradientUnits="userSpaceOnUse">
<stop stop-color="#ECCFB2"/>
<stop offset="1" stop-color="#B46E52"/>
</linearGradient>
</defs>
</svg>
